<svg xmlns="http://www.w3.org/2000/svg" version="1.1" xmlns:xlink="http://www.w3.org/1999/xlink" xmlns:svgjs="http://svgjs.dev/svgjs" width="1000" height="623" viewBox="0 0 1000 623"><g transform="matrix(1,0,0,1,-0.6060606060606233,0.2597935222672163)"><svg viewBox="0 0 396 247" data-background-color="#102e44" preserveAspectRatio="xMidYMid meet" height="623" width="1000" xmlns="http://www.w3.org/2000/svg" xmlns:xlink="http://www.w3.org/1999/xlink"><g id="tight-bounds" transform="matrix(1,0,0,1,0.2400000000000091,-0.09999999999999432)"><svg viewBox="0 0 395.52 247.2" height="247.2" width="395.52"><g><svg></svg></g><g><svg viewBox="0 0 395.52 247.2" height="247.2" width="395.52"><g><g><path xmlns="http://www.w3.org/2000/svg" d="M172.69 247.203l0-82.248 50.14 0v82.248zM172.69 43.984h-91.277v-43.987h232.694v43.987h-91.277v38.261l-50.14 0z" fill="#ffffff" fill-rule="nonzero" stroke="none" stroke-width="1" stroke-linecap="butt" stroke-linejoin="miter" stroke-miterlimit="10" stroke-dasharray="" stroke-dashoffset="0" font-family="none" font-weight="none" font-size="none" text-anchor="none" style="mix-blend-mode: normal" data-fill-palette-color="tertiary"></path></g></g><g transform="matrix(1,0,0,1,0,88.56359254666887)"><svg viewBox="0 0 395.52 70.07281490666223" height="70.07281490666223" width="395.52"><g><svg viewBox="0 0 490.5908521558007 86.91616600428578" height="70.07281490666223" width="395.52"><g transform="matrix(1,0,0,1,95.07085215580071,26.858356874510008)"><svg viewBox="0 0 395.52 33.19945225526577" height="33.19945225526577" width="395.52"><g id="textblocktransform"><svg viewBox="0 0 395.52 33.19945225526577" height="33.19945225526577" width="395.52" id="textblock"><g><svg viewBox="0 0 395.52 33.19945225526577" height="33.19945225526577" width="395.52"><g transform="matrix(1,0,0,1,0,0)"><svg width="395.52" viewBox="2.8299999237060547 -38.66999816894531 467.09002685546875 39.209999084472656" height="33.19945225526577" data-palette-color="#ffffff"><path d="M16.92 0L16.92-31.37 2.83-31.37 2.83-38.16 38.75-38.16 38.75-31.37 24.66-31.37 24.66 0 16.92 0ZM42.09 0L60.01-38.16 68.21-38.16 86.67 0 78.54 0 75.49-6.42 53.2-6.42 50.24 0 42.09 0ZM56.15-12.79L72.43-12.79 64.18-30.13 56.15-12.79ZM104.1 0L104.1-31.37 90.01-31.37 90.01-38.16 125.92-38.16 125.92-31.37 111.84-31.37 111.84 0 104.1 0ZM132.73-16.21L132.73-38.16 140.47-38.16 140.47-17.14Q140.47-14.55 141.18-12.54 141.89-10.52 143.29-9.13 144.69-7.74 146.77-7.02 148.85-6.3 151.6-6.3L151.6-6.3Q154.34-6.3 156.43-7.02 158.51-7.74 159.92-9.13 161.32-10.52 162.03-12.54 162.74-14.55 162.74-17.14L162.74-17.14 162.74-38.16 170.48-38.16 170.48-16.21Q170.48-12.45 169.21-9.38 167.94-6.3 165.52-4.1 163.1-1.9 159.6-0.71 156.1 0.49 151.6 0.49L151.6 0.49Q147.11 0.49 143.61-0.71 140.1-1.9 137.69-4.1 135.27-6.3 134-9.38 132.73-12.45 132.73-16.21L132.73-16.21ZM179.85 0L179.85-38.16 187.59-38.16 211.37-25.71 211.37-38.16 219.11-38.16 219.11 0 211.37 0 211.37-17.5 187.59-29.88 187.59 0 179.85 0ZM228.92 0L228.92-38.16 236.71-38.16 236.71 0 228.92 0ZM246.52 0L246.52-38.16 254.26-38.16 278.04-25.71 278.04-38.16 285.78-38.16 285.78 0 278.04 0 278.04-17.5 254.26-29.88 254.26 0 246.52 0ZM294.32-19.19L294.32-19.19Q294.32-23.51 295.91-27.1 297.49-30.69 300.36-33.26 303.23-35.84 307.25-37.26 311.26-38.67 316.14-38.67L316.14-38.67Q321-38.67 325.03-37.26 329.06-35.84 331.93-33.26 334.8-30.69 336.38-27.1 337.97-23.51 337.97-19.19L337.97-19.19Q337.97-14.84 336.38-11.22 334.8-7.59 331.93-4.98 329.06-2.37 325.03-0.92 321 0.54 316.14 0.54L316.14 0.54Q311.26 0.54 307.25-0.92 303.23-2.37 300.36-4.98 297.49-7.59 295.91-11.22 294.32-14.84 294.32-19.19ZM302.06-19.19L302.06-19.19Q302.06-16.24 303.12-13.87 304.18-11.5 306.07-9.83 307.97-8.15 310.54-7.25 313.12-6.35 316.14-6.35L316.14-6.35Q319.17-6.35 321.75-7.25 324.32-8.15 326.2-9.83 328.08-11.5 329.16-13.87 330.23-16.24 330.23-19.19L330.23-19.19Q330.23-22.14 329.16-24.49 328.08-26.83 326.2-28.45 324.32-30.08 321.75-30.93 319.17-31.79 316.14-31.79L316.14-31.79Q313.12-31.79 310.54-30.93 307.97-30.08 306.07-28.45 304.18-26.83 303.12-24.49 302.06-22.14 302.06-19.19ZM346.56 0L346.56-38.16 360.55-38.16Q366.68-38.16 371.2-36.84 375.71-35.52 378.68-33.07 381.65-30.62 383.1-27.11 384.55-23.61 384.55-19.24L384.55-19.24Q384.55-15.09 383.11-11.56 381.67-8.03 378.72-5.46 375.76-2.88 371.24-1.43 366.73 0.02 360.6 0.02L360.6 0.02 346.56 0ZM354.3-6.69L362.46-6.69Q365.92-6.69 368.53-7.58 371.15-8.47 372.89-10.11 374.64-11.74 375.52-14.06 376.4-16.38 376.4-19.24L376.4-19.24Q376.4-22.05 375.52-24.3 374.64-26.56 372.89-28.14 371.15-29.71 368.53-30.57 365.92-31.42 362.46-31.42L362.46-31.42 354.3-31.42 354.3-6.69ZM392.31 0L392.31-38.16 424.81-38.16 424.81-31.37 400.05-31.37 400.05-23.75 421.97-23.75 421.97-17.38 400.05-17.38 400.05-6.76 425.32-6.76 425.32 0 392.31 0ZM445.53 0L428.81-38.16 437.38-38.16 449.36-9.06 461.35-38.16 469.92-38.16 453.2 0 445.53 0Z" opacity="1" transform="matrix(1,0,0,1,0,0)" fill="#ffffff" class="undefined-text-0" data-fill-palette-color="primary" id="text-0"></path></svg></g></svg></g></svg></g></svg></g><g><svg viewBox="0 0 87.23325826518659 86.91616600428578" height="86.91616600428578" width="87.23325826518659"><g><svg xmlns="http://www.w3.org/2000/svg" xmlns:xlink="http://www.w3.org/1999/xlink" version="1.1" x="0" y="0" viewBox="7.999998092651367 8.199999809265137 84.00536346435547 83.70000457763672" enable-background="new 0 0 100 100" xml:space="preserve" height="86.91616600428578" width="87.23325826518659" class="icon-icon-0" data-fill-palette-color="accent" id="icon-0"><g fill="#b2fcfb" data-fill-palette-color="accent"><circle cx="50.3" cy="50.5" r="13" fill="#b2fcfb" data-fill-palette-color="accent"></circle><path d="M53.4 27.6c-1-0.1-2.1-0.2-3.1-0.2-12.7 0-23.1 10.4-23.1 23.1 0 12.7 10.4 23.1 23.1 23.1 12.7 0 23.1-10.4 23.1-23.1 0-7.1-3.2-13.7-8.7-18.1-1.5-1.2-3.6-0.9-4.8 0.5-1.2 1.5-0.9 3.6 0.5 4.8 3.9 3.1 6.1 7.7 6.1 12.7 0 9-7.3 16.3-16.3 16.3-9 0-16.3-7.3-16.3-16.3s7.3-16.3 16.3-16.3c0.7 0 1.5 0 2.2 0.1 1.9 0.3 3.6-1.1 3.8-2.9C56.6 29.6 55.3 27.9 53.4 27.6z" fill="#b2fcfb" data-fill-palette-color="accent"></path><path d="M79.1 65.6c0.9-1.7 0.2-3.7-1.4-4.6-1.7-0.9-3.7-0.2-4.6 1.4-4.4 8.5-13.2 13.8-22.7 13.8-5.8 0-11.3-1.9-15.9-5.5-1.5-1.2-3.6-0.9-4.8 0.6-1.2 1.5-0.9 3.6 0.6 4.8C36 80.6 43 83 50.3 83 62.4 83 73.4 76.3 79.1 65.6z" fill="#b2fcfb" data-fill-palette-color="accent"></path><path d="M79.4 53.9c1.9 0 3.4-1.5 3.4-3.4 0-17.9-14.6-32.5-32.5-32.5-1.2 0-2.4 0.1-3.6 0.2h0C30.3 20.1 17.9 34 17.9 50.5c0 3.5 0.6 7 1.7 10.3 0.5 1.4 1.8 2.3 3.2 2.3 0.4 0 0.7-0.1 1.1-0.2 1.8-0.6 2.7-2.5 2.1-4.3-0.9-2.6-1.3-5.3-1.3-8.1 0-13.1 9.8-24.1 22.8-25.5l0 0c0.9-0.1 1.9-0.2 2.9-0.2C64.5 24.9 76 36.4 76 50.5 76 52.4 77.5 53.9 79.4 53.9z" fill="#b2fcfb" data-fill-palette-color="accent"></path><path d="M44.5 85.1c-17.2-2.7-29.7-17.4-29.7-34.8 0-8.3 2.9-16.4 8.3-22.7 1.2-1.4 1-3.6-0.4-4.8-1.4-1.2-3.6-1-4.8 0.4-6.4 7.6-9.9 17.2-9.9 27.1 0 10.1 3.6 19.8 10.2 27.5 6.5 7.5 15.5 12.5 25.3 14.1 0.2 0 0.4 0 0.5 0 1.6 0 3.1-1.2 3.4-2.9C47.6 87.1 46.3 85.4 44.5 85.1z" fill="#b2fcfb" data-fill-palette-color="accent"></path><path d="M88.2 32.7c-0.8-1.7-2.8-2.5-4.5-1.7-1.7 0.8-2.5 2.8-1.7 4.5 2.1 4.6 3.2 9.6 3.2 14.7 0 17.5-12.5 32.2-29.8 34.8-1.9 0.3-3.1 2-2.8 3.9 0.3 1.7 1.7 2.9 3.4 2.9 0.2 0 0.3 0 0.5 0 9.8-1.5 18.8-6.5 25.3-14.1 6.6-7.6 10.2-17.4 10.2-27.5C92.1 44.1 90.8 38.2 88.2 32.7z" fill="#b2fcfb" data-fill-palette-color="accent"></path><path d="M31.7 20.1C37.2 16.7 43.5 15 50 15c9.9 0 19.4 4.2 26.1 11.6 0.7 0.7 1.6 1.1 2.5 1.1 0.8 0 1.6-0.3 2.3-0.9 1.4-1.3 1.5-3.4 0.2-4.8C73.2 13.2 61.8 8.2 50 8.2c-7.7 0-15.3 2.1-21.8 6.1-1.6 1-2.1 3.1-1.1 4.7C28 20.5 30.1 21.1 31.7 20.1z" fill="#b2fcfb" data-fill-palette-color="accent"></path></g></svg></g></svg></g></svg></g></svg></g></svg></g><defs><mask id="64711acb-5560-48e1-b432-7fa870e734fe"><rect width="640" height="400" fill="white"></rect><rect width="348.05760000000004" height="39.09971202919522" fill="black" y="104.05014398540239" x="23.731199999999973" id="transform-me"></rect></mask><mask id="786bb8d6-1730-4750-871c-453e670efb71"><rect width="640" height="400" fill="white"></rect><rect width="348.05760000000004" height="39.09971202919522" fill="black" y="104.05014398540239" x="23.731199999999973" id="transform-me"></rect></mask></defs></svg><rect width="395.52" height="247.2" fill="none" stroke="none" visibility="hidden"></rect></g></svg></g></svg>